<?xml version="1.0" encoding="UTF-8"?>
<!DOCTYPE svg PUBLIC "-//W3C//DTD SVG 1.1//EN" "http://www.w3.org/Graphics/SVG/1.1/DTD/svg11.dtd">
<!-- Creator: CorelDRAW X7 -->
<svg xmlns="http://www.w3.org/2000/svg" xml:space="preserve" width="32px" height="32px" version="1.1" style="shape-rendering:geometricPrecision; text-rendering:geometricPrecision; image-rendering:optimizeQuality; fill-rule:evenodd; clip-rule:evenodd"
viewBox="0 0 32 32"
 xmlns:xlink="http://www.w3.org/1999/xlink">
 <defs>

 </defs>
 <g id="Warstwa_x0020_1">
  <metadata id="CorelCorpID_0Corel-Layer"/>
  <path class="fill" d="M23 3c0,0 0,0 -1,0 -1,1 -3,2 -2,4 1,0 2,-1 4,-1 1,0 2,0 3,0 0,0 0,0 0,0 0,-2 -2,-3 -4,-3zm-14 0c-2,0 -4,1 -4,3 0,0 0,0 0,0 1,0 2,0 3,0 2,0 3,1 4,2 1,-2 -1,-4 -3,-5 0,0 0,0 0,0zm-1 4c-3,0 -4,2 -4,3 -1,3 -3,9 -3,9 0,0 0,0 0,0 -1,1 -1,2 -1,3 0,4 3,7 7,7 4,0 7,-3 7,-7 0,-3 -3,-6 -6,-7 3,1 5,3 6,4 0,1 1,3 2,3 1,0 2,-2 2,-3 1,-1 3,-3 6,-4 -3,1 -6,4 -6,7 0,4 3,7 7,7 4,0 7,-3 7,-7 0,-1 0,-2 -1,-3 0,0 0,0 0,0 0,0 -2,-6 -3,-9 0,-1 -1,-3 -4,-3 -3,0 -5,4 -6,3 0,0 -1,-1 -2,-1 -1,0 -2,1 -2,1 -1,1 -3,-3 -6,-3zm-1 11c2,0 4,2 4,4 0,3 -2,4 -4,4 -3,0 -4,-1 -4,-4 0,-2 1,-4 4,-4zm18 0c3,0 4,2 4,4 0,3 -1,4 -4,4 -2,0 -4,-1 -4,-4 0,-2 2,-4 4,-4z"/>
 </g>
</svg>
