<svg>
  <defs>
    <g id="icon-binocular">
      <svg xmlns="http://www.w3.org/2000/svg" xml:space="preserve" width="32mm" height="32mm" version="1.1" style="shape-rendering:geometricPrecision; text-rendering:geometricPrecision; image-rendering:optimizeQuality; fill-rule:evenodd; clip-rule:evenodd"
viewBox="0 0 3200 3200"
 xmlns:xlink="http://www.w3.org/1999/xlink">
 <defs>
  <style type="text/css">
   <![CDATA[
    .fil0 {fill:black}
   ]]>
  </style>
 </defs>
 <g id="Warstwa_x0020_1">
  <metadata id="CorelCorpID_0Corel-Layer"/>
  <path class="fil0" d="M2171 586c-20,1 -40,4 -60,9 -154,29 -252,174 -223,328 77,-68 184,-135 328,-135 115,0 191,28 249,57 0,-10 1,-18 -9,-27 -25,-135 -146,-235 -285,-232zm-1148 12c-133,-3 -254,93 -279,220 -10,9 -9,17 -9,27 58,-29 143,-57 249,-57 144,0 251,67 319,144 29,-154 -69,-299 -223,-328 -19,-5 -38,-5 -57,-6zm-39 286c-240,0 -298,133 -336,258 -67,211 -249,712 -249,712 0,0 9,-10 12,-12 -38,73 -61,156 -61,243 0,291 238,529 529,529 291,0 529,-238 529,-529 0,-272 -209,-498 -475,-525 311,16 411,167 475,285 0,106 86,192 192,192 106,0 192,-86 192,-192 64,-118 164,-269 475,-285 -266,27 -475,253 -475,525 0,291 238,529 529,529 291,0 529,-238 529,-529 0,-87 -23,-170 -61,-243 3,2 13,12 13,12 0,0 -183,-501 -250,-712 -38,-115 -96,-258 -336,-258 -260,0 -356,316 -433,258 -48,-48 -116,-66 -183,-66 -67,0 -135,18 -183,66 -77,58 -173,-258 -433,-258zm-105 865c187,0 337,149 337,336 0,187 -150,337 -337,337 -187,0 -336,-150 -336,-337 0,-187 149,-336 336,-336zm1442 0c187,0 336,149 336,336 0,187 -149,337 -336,337 -187,0 -337,-150 -337,-337 0,-187 150,-336 337,-336z"/>
 </g>
</svg>
    </g>
    <g id="icon-book">
      <!-- definicja drugiej ikony -->
    </g>
    <!-- i tak dalej... -->
  </defs>
</svg>